# xmcd
#
# Track frame offsets:
#	150
#	11061
#	26507
#	35809
#	53958
#	69707
#	80881
#	93555
#	107503
#	119576
#	131725
#	141406
#	150252
#	166150
#	174852
#	189924
#	204023
#	210566
#	221343
#	233886
#	247665
#
# Disc length: 3502 seconds
#
# Revision: 1
# Processed by: cddbd v1.5.2PL0 Copyright (c) Steve Scherf et al.
# Submitted via: audiograbber 1.83.01
#
DISCID=1c0dac15
DTITLE=Myron Bradburn - Christmas Reflections
DYEAR=1900
DGENRE=
TTITLE0=Joy To The WorldTrack  1
TTITLE1=Christmas Is Finally Here
TTITLE2=Come On Ring Those Bells
TTITLE3=Christmas Promise
TTITLE4=Glory, Glory
TTITLE5=What Child Is This
TTITLE6=I Heard The Bells On Christmas Day
TTITLE7=O Little Town Of Bethlehem
TTITLE8=Hark The Herald Angels Sing
TTITLE9=How Great Our Joy
TTITLE10=Angels From The Realms Of Glory
TTITLE11=We Have Me The Blessed Lord
TTITLE12=O Holy Night
TTITLE13=Infant Holy, Infant Lowly
TTITLE14=Still, Still, Still
TTITLE15=The Little Drummer Boy
TTITLE16=Sing We Now Of Christmas
TTITLE17=The World
TTITLE18=The Gift Goes On
TTITLE19=Worship The King
TTITLE20=O Come All Ye FaithfulTrack 21
EXTD=
EXTT0=
EXTT1=
EXTT2=
EXTT3=
EXTT4=
EXTT5=
EXTT6=
EXTT7=
EXTT8=
EXTT9=
EXTT10=
EXTT11=
EXTT12=
EXTT13=
EXTT14=
EXTT15=
EXTT16=
EXTT17=
EXTT18=
EXTT19=
EXTT20=
PLAYORDER=
